#define 14213_daf5a19f92cb218e1478e536f6a5ad75854c0a39e5bd58f7459a02286108ff8d_width 256
#define 14213_daf5a19f92cb218e1478e536f6a5ad75854c0a39e5bd58f7459a02286108ff8d_height 32
static char 14213_daf5a19f92cb218e1478e536f6a5ad75854c0a39e5bd58f7459a02286108ff8d_bits[] = {
  0x00, 0x00, 0x00, 0x00, 0x00, 0x00, 0x00, 0x00, 0x00, 0x00, 0x00, 0x00, 
  0x00, 0x00, 0x00, 0x00, 0x00, 0x00, 0x00, 0x00, 0x00, 0x00, 0x00, 0x00, 
  0x00, 0x00, 0x00, 0x00, 0x00, 0x00, 0x00, 0x00, 0x00, 0x00, 0x00, 0x00, 
  0x00, 0x00, 0x00, 0x00, 0x00, 0x00, 0x00, 0x00, 0x00, 0x00, 0x00, 0x00, 
  0x00, 0x00, 0x00, 0x00, 0x00, 0x00, 0x00, 0x00, 0x00, 0x00, 0x00, 0x00, 
  0x00, 0x00, 0x00, 0x00, 0x00, 0x00, 0x00, 0x00, 0x00, 0x00, 0x00, 0x00, 
  0x00, 0x00, 0x00, 0x00, 0x00, 0x00, 0x00, 0x00, 0x00, 0x00, 0x00, 0x00, 
  0x00, 0x00, 0x00, 0x00, 0x00, 0x00, 0x00, 0x00, 0x00, 0x00, 0x00, 0x00, 
  0x00, 0x00, 0x00, 0x00, 0x00, 0x00, 0x00, 0x00, 0x00, 0x00, 0x00, 0x00, 
  0x00, 0x00, 0x00, 0x00, 0x00, 0x00, 0x00, 0x00, 0x00, 0x00, 0x00, 0x00, 
  0x00, 0x00, 0x00, 0x00, 0x00, 0x00, 0x00, 0x00, 0x00, 0x00, 0x00, 0x00, 
  0x00, 0x00, 0x00, 0x00, 0x00, 0x00, 0x00, 0x00, 0x00, 0x00, 0x00, 0x00, 
  0x00, 0x00, 0x00, 0x00, 0x00, 0x00, 0x00, 0x00, 0x00, 0x00, 0x00, 0x00, 
  0x00, 0x00, 0x00, 0x00, 0x00, 0x00, 0x00, 0x00, 0x00, 0x00, 0x00, 0x00, 
  0x00, 0x00, 0x00, 0x00, 0x00, 0x00, 0x00, 0x00, 0x00, 0x00, 0x00, 0x00, 
  0x00, 0x00, 0x00, 0x00, 0x00, 0x00, 0x00, 0x00, 0x00, 0x00, 0x00, 0x00, 
  0x00, 0x00, 0x00, 0x00, 0x00, 0x00, 0x00, 0x00, 0x00, 0x00, 0x00, 0x00, 
  0x00, 0x00, 0x00, 0x00, 0x00, 0x00, 0x00, 0x00, 0x00, 0x00, 0x00, 0x00, 
  0x00, 0x00, 0x00, 0x00, 0x00, 0x00, 0x00, 0x00, 0x00, 0x00, 0x00, 0x00, 
  0x00, 0x00, 0x00, 0x00, 0x00, 0x00, 0x00, 0x00, 0x00, 0x00, 0x00, 0x00, 
  0x00, 0x00, 0x00, 0x00, 0x00, 0x00, 0x00, 0x00, 0x00, 0x00, 0x00, 0x00, 
  0x00, 0x00, 0x00, 0x00, 0x00, 0x00, 0x00, 0x00, 0x00, 0x00, 0x00, 0x00, 
  0x00, 0x00, 0x00, 0x00, 0x00, 0x00, 0x00, 0x00, 0x00, 0x00, 0x00, 0x00, 
  0x00, 0x00, 0x00, 0x00, 0x00, 0x00, 0x00, 0x00, 0x00, 0x00, 0x00, 0x00, 
  0x00, 0x00, 0x00, 0x00, 0x00, 0x00, 0x00, 0x00, 0x00, 0x00, 0x00, 0x00, 
  0x00, 0x00, 0x00, 0x00, 0x00, 0x00, 0x00, 0x00, 0x00, 0x00, 0x00, 0x00, 
  0x00, 0x00, 0x00, 0x00, 0x00, 0x00, 0x00, 0x00, 0x00, 0x00, 0x00, 0xFF, 
  0xFF, 0xFF, 0xFF, 0xFF, 0xFF, 0xFF, 0xFF, 0x07, 0xC0, 0xFF, 0xFF, 0xFF, 
  0xFF, 0xFF, 0xFF, 0xFF, 0xFF, 0x01, 0xF0, 0xFF, 0xFF, 0xFF, 0xFF, 0xFF, 
  0xFF, 0xFF, 0x0F, 0x00, 0x00, 0x00, 0xE0, 0x00, 0x00, 0x00, 0x00, 0x00, 
  0x00, 0x00, 0x00, 0x38, 0x38, 0x00, 0x00, 0x00, 0x00, 0x00, 0x00, 0x00, 
  0x00, 0x0E, 0x0E, 0x00, 0x00, 0x00, 0x00, 0x00, 0x00, 0x00, 0x70, 0x00, 
  0x00, 0x00, 0x20, 0x00, 0x00, 0x00, 0x00, 0x00, 0x00, 0x00, 0x00, 0x20, 
  0x08, 0x00, 0x00, 0x00, 0x00, 0x00, 0x00, 0x00, 0x00, 0x08, 0x02, 0x00, 
  0x00, 0x00, 0x00, 0x00, 0x00, 0x00, 0x80, 0x01, 0x00, 0x00, 0x10, 0xF8, 
  0xFD, 0x7E, 0x3F, 0xE0, 0xF7, 0xFB, 0xFD, 0x40, 0x04, 0x7E, 0xBF, 0xDF, 
  0x0F, 0xF8, 0xFD, 0x7E, 0x3F, 0x10, 0x81, 0xDF, 0xEF, 0xF7, 0x03, 0xBF, 
  0xDF, 0xEF, 0x07, 0x02, 0x00, 0x00, 0x10, 0x08, 0x85, 0x42, 0x21, 0x20, 
  0x14, 0x0A, 0x85, 0x40, 0x04, 0x42, 0xA1, 0x50, 0x08, 0x08, 0x85, 0x42, 
  0x21, 0x10, 0x81, 0x50, 0x28, 0x14, 0x02, 0xA1, 0x50, 0x28, 0x04, 0x04, 
  0x00, 0x00, 0x10, 0x08, 0x85, 0x42, 0x21, 0x20, 0x14, 0x0A, 0x85, 0x40, 
  0x04, 0x42, 0xA1, 0x50, 0x08, 0x08, 0x85, 0x42, 0x21, 0x10, 0x81, 0x50, 
  0x28, 0x14, 0x02, 0xA1, 0x50, 0x28, 0x04, 0x08, 0x00, 0x00, 0x10, 0x08, 
  0x85, 0x42, 0x21, 0x20, 0x14, 0x0A, 0x85, 0x40, 0x04, 0x42, 0xA1, 0x50, 
  0x08, 0x08, 0x85, 0x42, 0x21, 0x10, 0x81, 0x50, 0x28, 0x14, 0x02, 0xA1, 
  0x50, 0x28, 0x04, 0x10, 0x00, 0x00, 0x10, 0x08, 0x85, 0x42, 0x21, 0x20, 
  0x14, 0x0A, 0x85, 0x40, 0x04, 0x42, 0xA1, 0x50, 0x08, 0x08, 0x85, 0x42, 
  0x21, 0x10, 0x81, 0x50, 0x28, 0x14, 0x02, 0xA1, 0x50, 0x28, 0x04, 0x20, 
  0x00, 0x00, 0x10, 0x08, 0x85, 0x42, 0x21, 0x20, 0x14, 0x0A, 0x85, 0x40, 
  0x04, 0x42, 0xA1, 0x50, 0x08, 0x08, 0x85, 0x42, 0x21, 0x10, 0x81, 0x50, 
  0x28, 0x14, 0x02, 0xA1, 0x50, 0x28, 0x04, 0x20, 0x00, 0x00, 0x10, 0xF8, 
  0xFD, 0x7E, 0x3F, 0xE0, 0xF7, 0xFB, 0xFD, 0x40, 0x04, 0x7E, 0xBF, 0xDF, 
  0x0F, 0xF8, 0xFD, 0x7E, 0x3F, 0x10, 0x81, 0xDF, 0xEF, 0xF7, 0x03, 0xBF, 
  0xDF, 0xEF, 0x07, 0x40, 0x00, 0x00, 0x10, 0x00, 0x00, 0x00, 0x00, 0x00, 
  0x00, 0x00, 0x00, 0x40, 0x04, 0x00, 0x00, 0x00, 0x00, 0x00, 0x00, 0x00, 
  0x00, 0x10, 0x01, 0x00, 0x00, 0x00, 0x00, 0x00, 0x00, 0x00, 0x00, 0x80, 
  0x00, 0x00, 0x10, 0x00, 0x00, 0x00, 0x00, 0x00, 0x00, 0x00, 0x00, 0x40, 
  0x04, 0x00, 0x00, 0x00, 0x00, 0x00, 0x00, 0x00, 0x00, 0x10, 0x01, 0x00, 
  0x00, 0x00, 0x00, 0x00, 0x00, 0x00, 0x00, 0x80, 0x00, 0x00, 0x10, 0xC0, 
  0x07, 0x7C, 0x00, 0x00, 0x7C, 0xC0, 0x07, 0x40, 0x04, 0xF0, 0x01, 0x1F, 
  0x00, 0x00, 0x1F, 0xF0, 0x01, 0x10, 0x01, 0x7C, 0xC0, 0x07, 0x00, 0x00, 
  0x1F, 0xF0, 0x01, 0x80, 0x00, 0x00, 0x10, 0x20, 0x08, 0x82, 0x00, 0x00, 
  0x82, 0x20, 0x08, 0xC0, 0x07, 0x08, 0x82, 0x20, 0x00, 0x80, 0x20, 0x08, 
  0x02, 0xF0, 0x01, 0x82, 0x20, 0x08, 0x00, 0x80, 0x20, 0x08, 0x02, 0x80, 
  0x00, 0x00, 0x10, 0x90, 0x13, 0x39, 0x01, 0x00, 0x39, 0x91, 0x13, 0x40, 
  0x04, 0xE4, 0x44, 0x4E, 0x00, 0x40, 0x4E, 0xE4, 0x04, 0x10, 0x01, 0x39, 
  0x91, 0x13, 0x00, 0x40, 0x4E, 0xE4, 0x04, 0x80, 0x00, 0x00, 0x20, 0xC8, 
  0xA7, 0x7C, 0x02, 0x80, 0x7C, 0xCA, 0x27, 0x20, 0x08, 0xF2, 0x29, 0x9F, 
  0x00, 0x20, 0x9F, 0xF2, 0x09, 0x08, 0x82, 0x7C, 0xCA, 0x27, 0x00, 0x20, 
  0x9F, 0xF2, 0x09, 0xC0, 0x00, 0x00, 0xC0, 0xEF, 0xAF, 0xFE, 0x02, 0x80, 
  0xFE, 0xEA, 0xEF, 0x1F, 0xF0, 0xFB, 0xAB, 0xBF, 0x00, 0xA0, 0xBF, 0xFA, 
  0xFB, 0x07, 0xFC, 0xFE, 0xEA, 0x2F, 0x00, 0xA0, 0xBF, 0xFA, 0x0B, 0x30, 
  0x00, 0x00, 0x00, 0xE8, 0xEF, 0xFE, 0xFE, 0xFF, 0xFE, 0xEE, 0x2F, 0x00, 
  0x00, 0xFA, 0xBB, 0xBF, 0xFF, 0xBF, 0xBF, 0xFB, 0x0B, 0x00, 0x80, 0xFE, 
  0xEE, 0xEF, 0xFF, 0xBF, 0xBF, 0xFB, 0xFB, 0x1F, 0x00, 0x00, 0x00, 0xC8, 
  0xA7, 0x7C, 0x02, 0x80, 0x7C, 0xCA, 0x27, 0x00, 0x00, 0xF2, 0x29, 0x9F, 
  0x00, 0x20, 0x9F, 0xF2, 0x09, 0x00, 0x80, 0x7C, 0xCA, 0x27, 0x00, 0x20, 
  0x9F, 0xF2, 0x09, 0x00, 0x00, 0x00, 0x00, 0x90, 0x13, 0x39, 0x01, 0x00, 
  0x39, 0x91, 0x13, 0x00, 0x00, 0xE4, 0x44, 0x4E, 0x00, 0x40, 0x4E, 0xE4, 
  0x04, 0x00, 0x00, 0x39, 0x91, 0x13, 0x00, 0x40, 0x4E, 0xE4, 0x04, 0x00, 
  0x00, 0x00, 0x00, 0x20, 0x08, 0x82, 0x00, 0x00, 0x82, 0x20, 0x08, 0x00, 
  0x00, 0x08, 0x82, 0x20, 0x00, 0x80, 0x20, 0x08, 0x02, 0x00, 0x00, 0x82, 
  0x20, 0x08, 0x00, 0x80, 0x20, 0x08, 0x02, 0x00, 0x00, 0x00, 0x00, 0xC0, 
  0x07, 0x7C, 0x00, 0x00, 0x7C, 0xC0, 0x07, 0x00, 0x00, 0xF0, 0x01, 0x1F, 
  0x00, 0x00, 0x1F, 0xF0, 0x01, 0x00, 0x00, 0x7C, 0xC0, 0x07, 0x00, 0x00, 
  0x1F, 0xF0, 0x01, 0x00, };
