#define a98be63b28ac4aa0ca81c4cd70c5fc2d_width 136
#define a98be63b28ac4aa0ca81c4cd70c5fc2d_height 32
static char a98be63b28ac4aa0ca81c4cd70c5fc2d_bits[] = {
  0x00, 0x00, 0x00, 0x00, 0x00, 0x00, 0x00, 0x00, 0x00, 0x00, 0x00, 0x00, 
  0x00, 0x00, 0x00, 0x00, 0x00, 0x00, 0x00, 0x00, 0x00, 0x00, 0x00, 0x00, 
  0x00, 0x00, 0x00, 0x00, 0x00, 0x00, 0x00, 0x00, 0x00, 0x00, 0x00, 0x00, 
  0x00, 0x00, 0x00, 0x00, 0x00, 0x00, 0x00, 0x00, 0x00, 0x00, 0x38, 0x07, 
  0x0F, 0x00, 0x00, 0x00, 0x00, 0x00, 0x00, 0x00, 0x00, 0x00, 0x00, 0x00, 
  0x00, 0x00, 0x00, 0x20, 0x9C, 0xC5, 0x1F, 0x00, 0x00, 0x00, 0x00, 0x00, 
  0x00, 0x00, 0x00, 0x00, 0x00, 0x00, 0x00, 0x00, 0xE0, 0x17, 0x74, 0xF0, 
  0x00, 0x00, 0x00, 0x00, 0x00, 0x00, 0x00, 0x00, 0x00, 0x00, 0x00, 0x00, 
  0x00, 0x00, 0xE4, 0x9F, 0x43, 0x00, 0x00, 0x00, 0x00, 0x00, 0x00, 0x00, 
  0x00, 0x00, 0x00, 0x00, 0x00, 0x00, 0x00, 0x64, 0xEF, 0x5A, 0x00, 0x00, 
  0x00, 0x00, 0x00, 0x00, 0x00, 0x00, 0x00, 0x00, 0x00, 0x00, 0x00, 0x00, 
  0x9C, 0x39, 0x3E, 0x00, 0x00, 0x00, 0x00, 0x00, 0x00, 0x00, 0x00, 0x00, 
  0x00, 0x00, 0x00, 0x00, 0x00, 0x8C, 0xE0, 0xFB, 0x00, 0x00, 0x00, 0x00, 
  0x00, 0x00, 0x00, 0x00, 0x00, 0x00, 0x00, 0x00, 0x00, 0x00, 0x80, 0x3F, 
  0x68, 0x00, 0x00, 0x00, 0x00, 0x00, 0x00, 0x00, 0x00, 0x00, 0x00, 0x00, 
  0x00, 0x00, 0x00, 0x00, 0x00, 0x78, 0x00, 0x00, 0x00, 0x00, 0x00, 0x00, 
  0x00, 0x00, 0x00, 0x00, 0x00, 0x00, 0x00, 0x00, 0x00, 0x00, 0x18, 0x00, 
  0x00, 0x00, 0x00, 0x00, 0x00, 0x00, 0x00, 0x00, 0x00, 0x00, 0x00, 0x00, 
  0x00, 0x00, 0x00, 0x00, 0x00, 0x00, 0x00, 0x00, 0x00, 0x00, 0x00, 0x00, 
  0x00, 0x00, 0x00, 0x00, 0x00, 0x00, 0x00, 0x00, 0x78, 0x00, 0x00, 0x00, 
  0x00, 0x00, 0x00, 0x00, 0x00, 0x00, 0x00, 0x00, 0x00, 0xFE, 0x1F, 0xFC, 
  0x00, 0x84, 0x00, 0x00, 0x00, 0x00, 0x00, 0x00, 0x00, 0x00, 0x00, 0x00, 
  0x00, 0x00, 0x01, 0x20, 0x84, 0x00, 0x78, 0x00, 0x00, 0x00, 0x00, 0x00, 
  0x00, 0x00, 0x00, 0x00, 0x00, 0x00, 0x00, 0xFF, 0xBF, 0x84, 0x00, 0x48, 
  0x00, 0x00, 0xF0, 0xE1, 0x03, 0x00, 0x3E, 0x7C, 0x00, 0xC0, 0x87, 0x0F, 
  0x20, 0x51, 0x85, 0xC0, 0x4B, 0x07, 0xC0, 0x08, 0x12, 0xC4, 0x18, 0x41, 
  0x82, 0x18, 0x23, 0x48, 0x10, 0x23, 0x51, 0x85, 0x48, 0x4A, 0x05, 0x40, 
  0xFF, 0xFF, 0xBF, 0xE8, 0xFF, 0xFF, 0x17, 0xFD, 0xFF, 0xFF, 0x22, 0xF1, 
  0x87, 0x55, 0x4A, 0x05, 0xC0, 0x05, 0x00, 0xE8, 0xB8, 0x00, 0x00, 0x1D, 
  0x17, 0x00, 0xA0, 0x23, 0x11, 0x7A, 0x7F, 0xCE, 0x07, 0x00, 0x25, 0x37, 
  0x29, 0xA0, 0xDC, 0x05, 0x05, 0x94, 0x74, 0xA7, 0xE0, 0x1F, 0x02, 0x81, 
  0x35, 0x08, 0x00, 0x25, 0x55, 0x29, 0xA0, 0x44, 0x04, 0x05, 0x94, 0x52, 
  0xA1, 0x20, 0x10, 0x02, 0x01, 0x04, 0x10, 0x00, 0x25, 0x37, 0x29, 0xA0, 
  0xCC, 0x04, 0x05, 0x94, 0x71, 0xA3, 0x20, 0xF0, 0xFF, 0xFF, 0x07, 0x10, 
  0x00, 0x65, 0x15, 0x69, 0xA0, 0xC4, 0x1D, 0x0D, 0x94, 0x56, 0xA7, 0x21, 
  0x10, 0x00, 0x00, 0x04, 0x10, 0x00, 0x05, 0x00, 0xA8, 0xA0, 0x00, 0x00, 
  0x15, 0x14, 0x00, 0xA0, 0x22, 0x1C, 0x1C, 0x1C, 0x04, 0x08, 0xF0, 0xFF, 
  0xFF, 0xFF, 0xFF, 0xFF, 0xFF, 0xFF, 0xFF, 0xFF, 0xFF, 0xFF, 0x23, 0x22, 
  0x22, 0xFC, 0x07, 0x50, 0x00, 0x00, 0x80, 0x0A, 0x00, 0x00, 0x50, 0x01, 
  0x00, 0x00, 0x2A, 0xF9, 0xFF, 0xCF, 0x47, 0x38, 0xE0, 0xFF, 0xFF, 0xFF, 
  0xFD, 0xFF, 0xFF, 0xBF, 0xFF, 0xFF, 0xFF, 0x37, 0xC1, 0xC1, 0x41, 0xFE, 
  0x47, 0xB0, 0x28, 0x12, 0x45, 0x17, 0x45, 0xA2, 0xE8, 0xA2, 0x48, 0x14, 
  0xDD, 0x41, 0x41, 0x41, 0x29, 0x85, 0x80, 0x38, 0x12, 0x47, 0x10, 0x47, 
  0xE2, 0x08, 0xE2, 0x48, 0x1C, 0x01, 0x22, 0x22, 0x22, 0x39, 0xFD, 0x00, 
  0xC7, 0xE1, 0x38, 0xE0, 0x38, 0x1C, 0x07, 0x1C, 0x87, 0xE3, 0x00, 0x1C, 
  0x1C, 0x1C, 0xC6, 0x00, };
